<?xml version="1.0" encoding="UTF-8" standalone="no"?>
<!-- Created with Inkscape (http://www.inkscape.org/) -->

<svg
   width="512"
   height="512"
   viewBox="0 0 512 512"
   version="1.1"
   id="svg1"
   inkscape:version="1.3.2 (091e20e, 2023-11-25, custom)"
   sodipodi:docname="icon.svg"
   xmlns:inkscape="http://www.inkscape.org/namespaces/inkscape"
   xmlns:sodipodi="http://sodipodi.sourceforge.net/DTD/sodipodi-0.dtd"
   xmlns="http://www.w3.org/2000/svg"
   xmlns:svg="http://www.w3.org/2000/svg">
  <sodipodi:namedview
     id="namedview1"
     pagecolor="#ffffff"
     bordercolor="#111111"
     borderopacity="1"
     inkscape:showpageshadow="0"
     inkscape:pageopacity="0"
     inkscape:pagecheckerboard="1"
     inkscape:deskcolor="#d1d1d1"
     inkscape:document-units="px"
     inkscape:zoom="3.0351562"
     inkscape:cx="240.18533"
     inkscape:cy="191.25869"
     inkscape:window-width="1920"
     inkscape:window-height="991"
     inkscape:window-x="-9"
     inkscape:window-y="-9"
     inkscape:window-maximized="1"
     inkscape:current-layer="layer3" />
  <defs
     id="defs1">
    <rect
       x="75.119691"
       y="226.67696"
       width="442.15187"
       height="290.59459"
       id="rect1" />
  </defs>
  <g
     inkscape:label="Layer 1"
     inkscape:groupmode="layer"
     id="layer1">
    <text
       xml:space="preserve"
       id="text1"
       style="font-size:192px;white-space:pre;shape-inside:url(#rect1);fill:#000000"
       transform="matrix(1.2408422,0,0,1.2924311,-31.802534,-193.40544)"><tspan
         x="75.119141"
         y="406.38973"
         id="tspan3"><tspan
           style="font-family:Mexcellent;-inkscape-font-specification:Mexcellent"
           id="tspan2">SaC</tspan></tspan></text>
    <path
       style="fill:#0000ff;stroke-width:0.658945"
       d="m 117.62162,324.17073 c -8.33194,-2.33171 -16.28483,-7.50432 -21.451998,-13.95251 -5.275828,-6.58378 -10.177344,-18.32289 -10.177344,-24.37468 0,-1.95939 0.186215,-2.16786 1.936459,-2.16786 1.816043,0 1.960747,0.19463 2.327061,3.12998 1.219969,9.77587 4.618583,17.09051 10.824042,23.29597 6.84432,6.84432 15.35515,10.47495 24.55513,10.47495 10.36099,0 17.52096,-3.07076 25.28534,-10.84433 8.44127,-8.45128 11.5174,-16.11928 11.49981,-28.66606 -0.0177,-12.62019 -3.1636,-20.94743 -10.86285,-28.75408 -6.08985,-6.1748 -11.51967,-8.84178 -23.39253,-11.48981 -11.41699,-2.54634 -14.33217,-3.50205 -20.73804,-6.79874 -9.399925,-4.83754 -16.870159,-13.49621 -19.413787,-22.50232 -3.485534,-12.34108 -1.300162,-26.60293 5.630765,-36.7467 4.056052,-5.93624 8.656072,-9.89391 15.082192,-12.97611 6.54975,-3.14151 10.96424,-4.17944 17.76482,-4.17686 14.49637,0.006 26.80867,8.32862 34.25619,23.15719 2.08499,4.15137 4.31876,12.43815 4.31876,16.02163 0,2.37223 -0.12355,2.53037 -1.97684,2.53037 -1.71447,0 -1.97835,-0.2405 -1.98827,-1.8121 -0.0238,-3.77299 -2.03285,-11.20915 -4.24068,-15.69637 -6.00996,-12.21467 -16.61681,-18.73349 -30.48151,-18.73349 -10.86793,0 -18.92773,3.1263 -25.76406,9.99356 -11.838907,11.89247 -13.368559,35.01583 -3.146255,47.56109 6.073205,7.45331 12.415375,10.67794 29.982455,15.24436 6.07715,1.57971 12.94945,3.74182 15.27177,4.80468 14.67579,6.71673 23.55538,20.38322 24.6997,38.01504 1.25672,19.36371 -10.8391,38.00878 -28.72897,44.28418 -6.22729,2.18441 -15.604,2.70907 -21.07136,1.17902 z"
       id="path3" />
  </g>
  <g
     inkscape:groupmode="layer"
     id="layer2"
     inkscape:label="Layer 2">
    <path
       style="fill:#ff0000;stroke-width:0.329472"
       d="m 216.37799,263.00129 c 0.0911,-65.17834 0.12635,-68.76928 0.70517,-71.7426 1.23088,-6.32297 3.40969,-11.69152 6.80512,-16.76775 9.92267,-14.83455 27.42183,-21.14131 43.50193,-15.67825 11.85124,4.02635 21.68634,14.30978 25.82911,27.00653 1.911,5.85683 1.82315,2.14762 1.82315,76.97812 v 68.81656 h -2.14157 -2.14157 V 287.79408 243.97426 H 256 221.24067 v 43.81982 43.81982 h -2.47927 -2.47927 z m 74.38134,-45.19624 c 0,-13.25222 -0.13218,-22.17749 -0.35184,-23.75676 -2.09802,-15.0842 -12.28557,-26.90639 -26.60709,-30.87633 -3.67904,-1.01983 -12.5807,-1.01983 -16.25974,0 -5.88782,1.63211 -10.69039,4.33096 -15.01221,8.43627 -5.65122,5.36811 -9.49426,12.461 -10.80419,19.94072 -0.39327,2.24554 -0.48359,6.9379 -0.48359,25.12226 v 22.36097 H 256 290.75933 Z"
       id="path4" />
  </g>
  <g
     inkscape:groupmode="layer"
     id="layer3"
     inkscape:label="Layer 3">
    <path
       style="fill:#f9f9f9;stroke-width:0.329472"
       d="m 379.55212,324.32976 c -5.67491,-0.81777 -13.03572,-3.90559 -17.83603,-7.48211 -4.71788,-3.51512 -9.34102,-8.98112 -11.8941,-14.06258 -1.39978,-2.78601 -2.58984,-6.23129 -3.44334,-9.96855 l -0.73316,-3.21034 -0.11782,-45.63192 c -0.13447,-52.07378 -0.14277,-51.86515 2.35735,-59.19931 5.83091,-17.10512 23.5233,-28.51789 41.0504,-26.48026 14.89989,1.7322 27.49127,11.56139 32.73115,25.55087 1.76549,4.71352 2.25509,7.50897 2.43801,13.92021 l 0.17155,6.01287 h -2.30218 -2.30218 l -0.18778,-5.84814 c -0.21257,-6.62019 -0.82223,-9.91869 -2.67174,-14.4552 -5.95436,-14.60489 -21.01321,-22.61119 -37.75433,-20.07275 -7.57667,1.14884 -13.31765,3.94469 -18.56083,9.03909 -4.25913,4.13828 -7.30448,9.44662 -9.05515,15.78399 l -0.88338,3.19779 v 49.91506 49.91506 l 0.90477,3.29472 c 1.0494,3.82134 3.28719,8.65068 5.34437,11.53355 2.09611,2.93743 6.56158,6.99739 9.82295,8.93091 3.42944,2.03317 8.85844,3.89587 12.92147,4.43338 4.37747,0.57911 10.76559,0.22972 14.82626,-0.8109 12.17033,-3.11888 20.83122,-11.93795 24.11639,-24.55684 0.65508,-2.51626 0.85741,-4.27058 1.00027,-8.67295 l 0.17909,-5.51867 h 2.26075 2.26074 v 4.40472 c 0,7.22646 -1.36488,12.98403 -4.53138,19.11495 -7.52003,14.56017 -24.1332,23.22596 -40.11212,20.92335 z"
       id="path5" />
  </g>
</svg>
